<?xml version="1.0" encoding="utf-8"?>
<!-- Generator: Adobe Illustrator 17.1.0, SVG Export Plug-In . SVG Version: 6.00 Build 0)  -->
<!DOCTYPE svg PUBLIC "-//W3C//DTD SVG 1.1//EN" "http://www.w3.org/Graphics/SVG/1.1/DTD/svg11.dtd">
<svg version="1.1" id="Layer_1" xmlns="http://www.w3.org/2000/svg" xmlns:xlink="http://www.w3.org/1999/xlink" x="0px" y="0px"
	 viewBox="0 0 64 64" enable-background="new 0 0 64 64" xml:space="preserve">
<g>
	<g>
		<path d="M30.6,25.6H9.2c-1.5,0-2.7,1.2-2.7,2.7v33c0,1.5,1.2,2.7,2.7,2.7h21.4c1.5,0,2.7-1.2,2.7-2.7v-33
			C33.3,26.8,32.1,25.6,30.6,25.6z M9.3,32.2c0-1.5,1.2-2.7,2.7-2.7h15.6c1.5,0,2.7,1.2,2.7,2.7v0.3c0,1.5-1.2,2.7-2.7,2.7H12.1
			c-1.5,0-2.7-1.2-2.7-2.7V32.2z M11.5,60c-1.2,0-2.2-1-2.2-2.2s1-2.2,2.2-2.2c1.2,0,2.2,1,2.2,2.2S12.7,60,11.5,60z M11.5,54.1
			c-1.2,0-2.2-1-2.2-2.2c0-1.2,1-2.2,2.2-2.2c1.2,0,2.2,1,2.2,2.2C13.6,53.1,12.7,54.1,11.5,54.1z M11.5,48.1c-1.2,0-2.2-1-2.2-2.2
			c0-1.2,1-2.2,2.2-2.2c1.2,0,2.2,1,2.2,2.2C13.6,47.2,12.7,48.1,11.5,48.1z M11.5,42.2c-1.2,0-2.2-1-2.2-2.2c0-1.2,1-2.2,2.2-2.2
			c1.2,0,2.2,1,2.2,2.2C13.6,41.2,12.7,42.2,11.5,42.2z M17.2,60c-1.2,0-2.2-1-2.2-2.2s1-2.2,2.2-2.2s2.2,1,2.2,2.2S18.4,60,17.2,60
			z M17.2,54.1c-1.2,0-2.2-1-2.2-2.2c0-1.2,1-2.2,2.2-2.2s2.2,1,2.2,2.2C19.3,53.1,18.4,54.1,17.2,54.1z M17.2,48.1
			c-1.2,0-2.2-1-2.2-2.2c0-1.2,1-2.2,2.2-2.2s2.2,1,2.2,2.2C19.3,47.2,18.4,48.1,17.2,48.1z M17.2,42.2c-1.2,0-2.2-1-2.2-2.2
			c0-1.2,1-2.2,2.2-2.2s2.2,1,2.2,2.2C19.3,41.2,18.4,42.2,17.2,42.2z M22.8,60c-1.2,0-2.2-1-2.2-2.2s1-2.2,2.2-2.2
			c1.2,0,2.2,1,2.2,2.2S24,60,22.8,60z M22.8,54.1c-1.2,0-2.2-1-2.2-2.2c0-1.2,1-2.2,2.2-2.2c1.2,0,2.2,1,2.2,2.2
			C25,53.1,24,54.1,22.8,54.1z M22.8,48.1c-1.2,0-2.2-1-2.2-2.2c0-1.2,1-2.2,2.2-2.2c1.2,0,2.2,1,2.2,2.2C25,47.2,24,48.1,22.8,48.1
			z M22.8,42.2c-1.2,0-2.2-1-2.2-2.2c0-1.2,1-2.2,2.2-2.2c1.2,0,2.2,1,2.2,2.2C25,41.2,24,42.2,22.8,42.2z M30.7,57.9
			c0,1.2-1,2.2-2.2,2.2c-1.2,0-2.2-1-2.2-2.2v-6c0-1.2,1-2.2,2.2-2.2c1.2,0,2.2,1,2.2,2.2V57.9z M28.5,48.1c-1.2,0-2.2-1-2.2-2.2
			c0-1.2,1-2.2,2.2-2.2c1.2,0,2.2,1,2.2,2.2C30.7,47.2,29.7,48.1,28.5,48.1z M28.5,42.2c-1.2,0-2.2-1-2.2-2.2c0-1.2,1-2.2,2.2-2.2
			c1.2,0,2.2,1,2.2,2.2C30.7,41.2,29.7,42.2,28.5,42.2z"/>
	</g>
	<g>
		<path d="M17.5,0c0,0-6.2,0.7-6.2,7.7c0,7,0,15.5,0,15.5h4.2v-2.6h23.4v3.1h-5.2c0.7,0.5,1.4,1.5,1.8,3.5h3.3v3.1h-3
			c0,0.1,0,0.2,0,0.4c0,0.9,0,1.9,0,3h3v3.1h-3c0,1,0,2.1,0,3.2h3v3.1h-3c0,7.6,0,15.1,0,15.1l0.5,0.5l3.4-6l3.7,6l3.7-6.2l3.4,6.2
			l3.6-5.9V4.6c0,0,0.2-4.6,3.4-4.6H17.5z M38.8,17.3H15.4v-3.1h23.4V17.3z M38.8,11H15.4V7.8h23.4V11z M49.9,43.2h-8.2v-3.1h8.2
			V43.2z M49.9,36.9h-8.2v-3.1h8.2V36.9z M49.9,30.3h-8.2v-3.1h8.2V30.3z M49.9,23.7h-8.2v-3.1h8.2V23.7z M49.9,17.3h-8.2v-3.1h8.2
			V17.3z M49.9,11h-8.2V7.8h8.2V11z"/>
	</g>
</g>
</svg>
