<?xml version="1.0" encoding="utf-8"?>
<!-- Generator: Adobe Illustrator 17.1.0, SVG Export Plug-In . SVG Version: 6.00 Build 0)  -->
<!DOCTYPE svg PUBLIC "-//W3C//DTD SVG 1.1//EN" "http://www.w3.org/Graphics/SVG/1.1/DTD/svg11.dtd">
<svg version="1.1" id="Layer_1" xmlns="http://www.w3.org/2000/svg" xmlns:xlink="http://www.w3.org/1999/xlink" x="0px" y="0px"
	 viewBox="0 0 64 64" enable-background="new 0 0 64 64" xml:space="preserve">
<g>
	<g>
		<path d="M63.8,12.6C62.7,5.5,56,0.8,48.9,2c-3.5,0.6-6.3,2.3-8.3,5.2c-3.1,4.6-3.2,9.3-0.7,14.2c-1.6,0.2-3-0.6-3.7-2
			c-0.7-1.4-0.4-3,0.6-4.1c0.2-0.2,0.4-0.4,0.4-0.6c0-1.8,0.4-3.6,1.1-5.3c-2.1-0.8-4.3-0.9-6.5-0.5c-6.1,1.3-10.2,6.7-9.9,12.9
			c0,0.4-0.1,0.6-0.4,0.8c-1.9,1.1-3.8,2.2-5.7,3.3c-4.5,2.6-9,5.3-13.6,7.9c-0.7,0.4-1.3,1-1.4,1.8c-0.2,1.3-0.5,2.6-0.7,3.9
			C-0.1,40.4,0.1,40.7,1,41c0.9,0.3,1.9,0.6,2.8,0.9c0.9,0.3,1.8,0.8,2.6,0.7c0.8-0.1,1.6-0.9,2.4-1.3c0.4-0.2,0.8-0.3,1.2-0.3
			c1.3,0.1,1.5-0.1,2-1.2c0.3-0.6,0.4-1.4,1.2-1.6c0.5-0.1,0.9-0.1,1.4-0.1c0.8,0,1.2-0.3,1.3-1.1c0.1-0.5,0.2-1,0.2-1.5
			c0.1-0.7,1.3-1.5,2-1.3c0.9,0.3,1.8,0.6,2.8,1c0.7,0.2,1.2,0,1.4-0.7c0.3-0.7,0.5-1.4,0.8-2.1c0.4-1.1,1.1-1.3,2.1-0.7
			c0.2,0.1,0.4,0.3,0.6,0.4c0.4,0.3,0.9,0.3,1.2,0c0.6-0.5,1.2-0.3,1.8,0c4.6,2.1,9,1.8,12.9-1.3c5-3.8,6.2-10.4,3.2-15.9
			c-0.7-1.4-1.7-2.6-3.1-3.6c-0.2,0.9-0.3,1.6-0.5,2.4c-0.1,0.6,0,1.1,0.5,1.4c0.2,0.1,0.4,0.4,0.6,0.7c0.9,1.4,0.6,3.5-0.5,4.3
			c-3.1-4.7-1.5-11.4,3.4-14.5c5-3.1,11.7-1.6,14.7,3.4c1.5,2.6,2,5.3,1.3,8.2c-1,3.8-3.4,6.3-7.1,7.6c0.1,0.8,0.3,1.5,0.4,2.2
			C60,25.9,65,20,63.8,12.6z M20.1,29.3c-5,2.9-9.9,5.8-14.9,8.7c-0.7,0.4-1,0.4-1.3-0.2c-0.3-0.5-0.3-0.8,0.3-1.2
			c6.1-3.6,12.2-7.1,18.3-10.7c0.1,0,0.1,0,0.2-0.1c0.2,0.5,0.5,1,0.7,1.5C22.4,28,21.2,28.6,20.1,29.3z"/>
	</g>
	<g>
		<path d="M52.9,24.7c-0.8-2.8-2.4-5-4.8-6.8c0.9,5.2-0.4,9.7-4.1,13.3c-3.8,3.6-8.3,4.6-13.5,3.4c0.6,0.6,0.4,1,0.1,1.5
			c-3.7,6.4-7.3,12.8-11,19.3c-0.4,0.8-0.5,1.5-0.2,2.4c0.4,1.1,0.8,2.2,1.2,3.4c0.4,1.1,0.7,1.3,1.9,1c1.2-0.3,2.4-0.6,3.6-0.8
			c1.3-0.1,2-0.7,2.5-1.8c0.4-0.9,0.9-1.7,2-2.1c0.5-0.2,0.7-0.7,0.6-1.3c-0.1-0.8-0.5-1.7,0.2-2.4c0.4-0.4,0.8-0.6,1.2-0.9
			c0.6-0.4,0.8-0.8,0.6-1.5c-0.2-0.5-0.4-1.1-0.6-1.6c-0.2-0.6,0.4-1.9,1.1-2c0.9-0.2,1.9-0.4,2.8-0.5c0.8-0.2,1.1-0.5,1-1.4
			c-0.1-0.8-0.3-1.5-0.4-2.3c-0.2-1,0.4-1.6,1.3-1.6c0.2,0,0.3,0,0.5,0c0.8,0.1,1.3-0.2,1.6-0.9c0.2-0.5,0.5-0.6,1-0.6
			c1.4,0,2.8-0.3,4.1-0.8C51.6,37.3,54.7,30.9,52.9,24.7z M34.7,39.4c-3.4,6-6.8,12-10.3,18c-0.4,0.7-0.7,0.8-1.3,0.4
			c-0.4-0.3-0.6-0.6-0.3-1.1c3.6-6.2,7.1-12.5,10.7-18.8c0.5,0.3,0.9,0.6,1.4,1C34.8,39.1,34.7,39.2,34.7,39.4z"/>
	</g>
</g>
</svg>
