<?xml version="1.0" encoding="utf-8"?>
<!-- Generator: Adobe Illustrator 17.1.0, SVG Export Plug-In . SVG Version: 6.00 Build 0)  -->
<!DOCTYPE svg PUBLIC "-//W3C//DTD SVG 1.1//EN" "http://www.w3.org/Graphics/SVG/1.1/DTD/svg11.dtd">
<svg version="1.1" id="Layer_1" xmlns="http://www.w3.org/2000/svg" xmlns:xlink="http://www.w3.org/1999/xlink" x="0px" y="0px"
	 viewBox="0 0 64 64" enable-background="new 0 0 64 64" xml:space="preserve">
<g>
	<path d="M63.1,7.9l-5.7-5.7c-0.6-0.6-1.4-0.9-2.1-0.9c-0.8,0-1.6,0.3-2.1,0.9l-4.6,4.6l10,10l4.6-4.6C64.3,11,64.3,9.1,63.1,7.9z"
		/>
	<polygon points="18.8,36.5 28.8,46.4 56.4,18.9 46.4,8.9 	"/>
	<polygon points="16.6,38.6 14.5,50.7 26.6,48.6 	"/>
	<path d="M44.3,56.1H6.6V18.4h26.6l6.6-6.6H4.2C1.9,11.8,0,13.7,0,16v42.4c0,2.3,1.9,4.2,4.2,4.2h42.4c2.3,0,4.2-1.9,4.2-4.2V28.1
		l-6.6,6.5V56.1z"/>
</g>
</svg>
