<?xml version="1.0" encoding="utf-8"?>
<!-- Generator: Adobe Illustrator 17.1.0, SVG Export Plug-In . SVG Version: 6.00 Build 0)  -->
<!DOCTYPE svg PUBLIC "-//W3C//DTD SVG 1.1//EN" "http://www.w3.org/Graphics/SVG/1.1/DTD/svg11.dtd">
<svg version="1.1" id="Layer_1" xmlns="http://www.w3.org/2000/svg" xmlns:xlink="http://www.w3.org/1999/xlink" x="0px" y="0px"
	 viewBox="0 0 64 64" enable-background="new 0 0 64 64" xml:space="preserve">
<g>
	<path d="M32,58.7c-7.5,0-14.9,0-22.4,0c-1.1,0-1.9-0.4-2.7-1.3c-3.7-4.7-6-10-6.7-15.9c-1.8-14.1,5.7-27.4,18.3-33
		c12-5.4,23.4-3.9,33.7,4.2c6.4,5,10.1,11.7,11.4,19.7c1.4,9.4-0.9,17.8-6.8,25.2c-0.5,0.7-1.2,1-2,1C47.2,58.7,39.6,58.7,32,58.7
		C32,58.7,32,58.7,32,58.7z M31.9,54.3C31.9,54.3,31.9,54.3,31.9,54.3c7.1,0,14.1,0,21.2,0c0.5,0,0.9-0.2,1.2-0.6
		c3.1-4.3,4.9-9,5.3-14.3c0.4-5.7-0.8-11-3.7-15.9c-5.9-10.3-18.3-15.7-29.9-13c-12.2,2.8-21,13.3-21.6,25.7
		c-0.3,6.4,1.5,12.3,5.3,17.5c0.3,0.4,0.6,0.6,1.2,0.6C17.9,54.3,24.9,54.3,31.9,54.3z"/>
	<path fill="#FFFFFF" d="M32,48.7c1.3,0,2.4-0.5,3.2-1.5c1.1-1.3,2.1-2.6,3.2-3.9c2.9-3.5,5.9-7.1,8.8-10.6c0.8-1,0.9-2.3,0.2-3.2
		c-0.9-1.1-2.3-1.1-3.5-0.1c-4.8,4-9.6,8-14.5,11.9c-1.3,1.1-1.9,3-1.3,4.6C28.7,47.6,30.2,48.7,32,48.7z"/>
	<path fill="#FFFFFF" d="M54.1,39.1C54.1,39.1,54.1,39.1,54.1,39.1c0.5,0,1,0,1.4,0c0.7-0.1,1.1-0.6,1.1-1.3c0-0.6-0.4-1.2-1.1-1.2
		c-0.9-0.1-1.8-0.1-2.7,0c-0.7,0-1.2,0.6-1.2,1.2c0,0.7,0.5,1.2,1.2,1.3C53.3,39.1,53.7,39.1,54.1,39.1z"/>
	<path fill="#FFFFFF" d="M16.7,24.4c0.4-0.3,0.9-0.5,1-0.8c0.2-0.4,0.1-1-0.1-1.3c-0.6-0.7-1.3-1.4-2-2c-0.4-0.4-1-0.5-1.4-0.1
		c-0.3,0.3-0.6,0.8-0.6,1.2C13.6,22.1,15.8,24.2,16.7,24.4z"/>
	<path fill="#FFFFFF" d="M47.7,24.4c0.4-0.1,0.7-0.1,0.8-0.3c0.7-0.7,1.5-1.4,2.1-2.1c0.4-0.5,0.3-1.1-0.2-1.5
		c-0.4-0.5-1.1-0.6-1.6-0.2c-0.8,0.6-1.5,1.4-2.1,2.1c-0.2,0.3-0.2,0.9,0,1.3C46.9,24,47.4,24.1,47.7,24.4z"/>
	<path fill="#FFFFFF" d="M9.8,39.1C9.8,39.1,9.8,39.1,9.8,39.1c0.4,0,0.8,0,1.2,0c0.8-0.1,1.2-0.5,1.2-1.2c0-0.7-0.4-1.3-1.2-1.3
		c-0.8-0.1-1.6-0.1-2.4,0c-0.8,0-1.3,0.6-1.3,1.3c0,0.7,0.6,1.3,1.4,1.3C9,39.1,9.4,39.1,9.8,39.1z"/>
	<path fill="#FFFFFF" d="M33.6,15C33.6,15,33.6,15,33.6,15c0-0.4,0-0.7,0-1.1c0-0.7-0.6-1.2-1.2-1.3c-0.6,0-1.3,0.5-1.3,1.2
		c-0.1,0.8,0,1.7,0,2.5c0,0.6,0.7,1.1,1.3,1.1c0.7,0,1.2-0.5,1.2-1.2C33.6,15.8,33.6,15.4,33.6,15z"/>
	<path d="M32,48.7c-1.8,0-3.3-1.1-3.9-2.8c-0.6-1.6-0.1-3.5,1.3-4.6c4.8-4,9.6-8,14.5-11.9c1.2-1,2.6-1,3.5,0.1
		c0.7,0.9,0.7,2.1-0.2,3.2c-2.9,3.5-5.9,7.1-8.8,10.6c-1.1,1.3-2.1,2.6-3.2,3.9C34.4,48.2,33.3,48.7,32,48.7z"/>
	<path d="M54.1,39.1c-0.4,0-0.8,0-1.2,0c-0.7-0.1-1.2-0.6-1.2-1.3c0-0.6,0.5-1.2,1.2-1.2c0.9-0.1,1.8-0.1,2.7,0
		c0.7,0.1,1.1,0.6,1.1,1.2c0,0.6-0.4,1.2-1.1,1.3C55.1,39.1,54.6,39.1,54.1,39.1C54.1,39.1,54.1,39.1,54.1,39.1z"/>
	<path d="M16.7,24.4c-0.9-0.2-3.1-2.3-3-3.1c0-0.4,0.3-0.9,0.6-1.2c0.4-0.4,1-0.3,1.4,0.1c0.7,0.6,1.4,1.3,2,2
		c0.2,0.3,0.3,0.9,0.1,1.3C17.5,23.9,17,24.1,16.7,24.4z"/>
	<path d="M47.7,24.4c-0.3-0.2-0.8-0.4-0.9-0.7c-0.2-0.4-0.2-1,0-1.3c0.6-0.8,1.3-1.5,2.1-2.1c0.5-0.4,1.1-0.3,1.6,0.2
		c0.4,0.4,0.5,1.1,0.2,1.5c-0.6,0.8-1.4,1.5-2.1,2.1C48.3,24.2,48,24.2,47.7,24.4z"/>
	<path d="M9.8,39.1c-0.4,0-0.7,0-1.1,0c-0.8,0-1.4-0.6-1.4-1.3c0-0.7,0.5-1.3,1.3-1.3c0.8,0,1.6-0.1,2.4,0c0.8,0.1,1.2,0.6,1.2,1.3
		c0,0.7-0.5,1.2-1.2,1.2C10.5,39.1,10.2,39.1,9.8,39.1C9.8,39.1,9.8,39.1,9.8,39.1z"/>
	<path d="M33.6,15c0,0.4,0,0.8,0,1.2c0,0.7-0.6,1.2-1.2,1.2c-0.6,0-1.2-0.5-1.3-1.1c-0.1-0.8-0.1-1.7,0-2.5c0-0.7,0.7-1.2,1.3-1.2
		c0.7,0,1.2,0.6,1.2,1.3C33.6,14.2,33.6,14.6,33.6,15C33.6,15,33.6,15,33.6,15z"/>
</g>
</svg>
