<?xml version="1.0" encoding="utf-8"?>
<!-- Generator: Adobe Illustrator 17.1.0, SVG Export Plug-In . SVG Version: 6.00 Build 0)  -->
<!DOCTYPE svg PUBLIC "-//W3C//DTD SVG 1.1//EN" "http://www.w3.org/Graphics/SVG/1.1/DTD/svg11.dtd">
<svg version="1.1" id="Layer_1" xmlns="http://www.w3.org/2000/svg" xmlns:xlink="http://www.w3.org/1999/xlink" x="0px" y="0px"
	 viewBox="0 0 64 64" enable-background="new 0 0 64 64" xml:space="preserve">
<g>
	<path d="M22.4,30.9c0,0-3.4,0-3.4-4.8s0.8-3.7,0.8-3.7S19,16,19,13.4s2.9-9.4,12.2-9.4c0,0,2.4,0,4.7-0.6c2.3-0.6,2.3-1,3,0
		c0.7,1,0.5,1.2,1.4,1.7c0.9,0.5,4.5,4.9,4.5,9.4c0,4.5-1,8-1,8s1-0.4,1,1.9c0,2.3,0.2,5.9-3.3,6.5c0,0,0,4.8-0.9,5.5
		c-0.8,0.7-1,1-1,1.5c0,0.5,0.3,0.6,1,1.1c0.7,0.5,1.6,2.3,2.5,2.9c1,0.6,15.6,4.4,17.7,8.6c2.1,4.2,3.5,6.4,3.1,8.3
		c-0.4,1.9-1.7,2.5-3.6,2.5H31.6H2.8c0,0-2.8-0.4-2.8-3.3c0-2.8,1.9-9.7,12.4-13c10.5-3.3,8.3-2.9,8.3-2.9s1.9-3.2,3.3-3.5
		c0,0,0.5-0.6-0.3-1.8c-0.8-1.2-1.4-1.3-1.4-3.5C22.3,31.1,22.4,30.9,22.4,30.9"/>
</g>
</svg>
