<?xml version="1.0" encoding="utf-8"?>
<!-- Generator: Adobe Illustrator 17.1.0, SVG Export Plug-In . SVG Version: 6.00 Build 0)  -->
<!DOCTYPE svg PUBLIC "-//W3C//DTD SVG 1.1//EN" "http://www.w3.org/Graphics/SVG/1.1/DTD/svg11.dtd">
<svg version="1.1" id="Layer_1" xmlns="http://www.w3.org/2000/svg" xmlns:xlink="http://www.w3.org/1999/xlink" x="0px" y="0px"
	 viewBox="0 0 64 64" enable-background="new 0 0 64 64" xml:space="preserve">
<g>
	<path fill="#FFFFFF" d="M40.2,47.9c1.2-1.3,1.9-2.4,2.8-3.1c4.5-3.6,7-8.3,7.2-14c0.2-8.6-5.6-15.9-14.1-17.9
		c-7.8-1.9-16.4,2.2-20,9.5c-3.8,7.7-1.7,16.8,5,22.2c1.1,0.9,1.9,2,3,3.3H40.2z M23.2,58.8c0.4,3,1.8,4.8,4.4,5
		c3.1,0.3,6.4,0.3,9.5-0.1c2.5-0.3,3.9-2.1,3.9-4.9H23.2z M23.3,55H41v-3.3H23.3V55z M58.4,27.5c-1.4,0.4-3.2,0.3-3.7,1.1
		c-0.6,0.9-0.1,2.6-0.1,3.9c2.5,0,5,0,7.4-0.2c0.1,0,0.5-2.7-0.1-3.6C61.3,27.9,59.6,27.9,58.4,27.5 M29.5,4.2
		c0.2,1.8-0.6,4.1,2.1,4.5c0.9,0.1,2.6-0.4,2.7-0.8c0.4-2.1,0.5-4.4,0.3-6.5c0-0.6-1.7-1.5-2.4-1.4c-1,0.2-1.9,1.2-2.6,2
		C29.3,2.6,29.5,3.5,29.5,4.2 M59.1,45.1c-0.1-2.7-5.7-6-7.2-4.7c-0.8,0.7-1.5,3-1.2,3.2c1.9,1.4,4,2.7,6.3,3.6
		C57.3,47.3,58.5,45.6,59.1,45.1 M18.5,2.6c-1.4,1.5-3,2.6-2.8,3c0.9,2.2,2.2,4.3,3.6,6.3c0.2,0.3,2.7-0.4,3-1.1
		c0.4-1.1,0.1-2.7-0.5-3.8C21.1,5.6,19.9,4.4,18.5,2.6 M14,18.7c-0.1-2.6-5.5-5.9-7-4.7c-0.9,0.6-1.7,2.9-1.5,3.1
		c2,1.5,4.1,2.8,6.4,3.8C12.3,21,13.5,19.3,14,18.7 M53.2,21.7c2-1.4,3.9-2.5,5.5-4c0.4-0.4,0.1-2.1-0.4-2.7c-0.5-0.6-1.9-1.2-2.6-1
		c-1.6,0.6-3.2,1.5-4.5,2.7c-0.5,0.5-0.7,2-0.4,2.8C51.2,20.3,52.2,20.8,53.2,21.7 M43.8,12.2c2.8,0,6.1-5.3,4.9-6.9
		c-0.6-0.9-3-1.7-3.1-1.5c-1.4,1.9-2.8,4-3.7,6.2C41.6,10.5,43.3,11.7,43.8,12.2 M13.8,42c-0.5-0.5-1.7-2.3-2.1-2.1
		c-2.2,0.9-4.4,2.2-6.3,3.6c-0.2,0.2,0.5,2.5,1.3,3.2C8.4,47.9,13.7,44.8,13.8,42 M6.1,33.2L6.2,33c0.5,0,0.9,0,1.4,0
		c1.8,0.1,2.9-0.6,3-2.5c0-2-1-2.9-3-2.8c-1.3,0.1-2.7-0.1-3.9,0.2c-0.7,0.2-1.7,1-1.8,1.7c-0.2,0.9,0.1,2.3,0.7,2.7
		C3.5,33,4.9,33,6.1,33.2"/>
	<path d="M40.2,47.9h-16c-1.1-1.3-2-2.4-3-3.3c-6.7-5.4-8.8-14.5-5-22.2c3.6-7.3,12.2-11.4,20-9.5c8.5,2,14.3,9.3,14.1,17.9
		c-0.2,5.7-2.6,10.4-7.2,14C42,45.6,41.3,46.6,40.2,47.9"/>
	<path d="M23.2,58.8H41c0,2.8-1.5,4.6-3.9,4.9c-3.1,0.4-6.3,0.4-9.5,0.1C25,63.5,23.5,61.7,23.2,58.8"/>
	<rect x="23.3" y="51.6" width="17.7" height="3.3"/>
	<path d="M58.4,27.5c1.2,0.4,2.9,0.4,3.5,1.2c0.6,0.9,0.2,3.6,0.1,3.6c-2.5,0.2-5,0.2-7.4,0.2c0-1.3-0.5-3,0.1-3.9
		C55.2,27.9,57,27.9,58.4,27.5"/>
	<path d="M29.5,4.2c0-0.7-0.2-1.6,0.2-2.1c0.6-0.9,1.6-1.8,2.6-2c0.7-0.2,2.3,0.8,2.4,1.4c0.2,2.2,0.1,4.4-0.3,6.5
		c-0.1,0.4-1.8,0.9-2.7,0.8C28.9,8.3,29.7,6,29.5,4.2"/>
	<path d="M59.1,45.1c-0.5,0.5-1.8,2.3-2.2,2.1c-2.2-0.9-4.3-2.1-6.3-3.6c-0.3-0.2,0.4-2.5,1.2-3.2C53.4,39.1,59,42.3,59.1,45.1"/>
	<path d="M18.5,2.6c1.4,1.8,2.6,3,3.3,4.5c0.5,1.1,0.9,2.7,0.5,3.8c-0.2,0.7-2.8,1.4-3,1.1c-1.4-1.9-2.7-4.1-3.6-6.3
		C15.6,5.2,17.2,4.1,18.5,2.6"/>
	<path d="M14,18.7c-0.5,0.5-1.7,2.3-2.1,2.1c-2.3-0.9-4.4-2.3-6.4-3.7C5.3,16.9,6.1,14.6,7,14C8.5,12.9,13.9,16.1,14,18.7"/>
	<path d="M53.2,21.7c-1-0.9-2.1-1.4-2.4-2.2c-0.3-0.8-0.2-2.3,0.4-2.8c1.3-1.1,2.9-2.1,4.5-2.7c0.7-0.3,2.1,0.3,2.6,1
		c0.5,0.7,0.8,2.3,0.4,2.7C57.2,19.2,55.3,20.3,53.2,21.7"/>
	<path d="M43.8,12.2c-0.5-0.5-2.1-1.7-1.9-2.2c0.9-2.2,2.2-4.3,3.7-6.2c0.1-0.2,2.4,0.7,3.1,1.5C49.8,6.9,46.5,12.2,43.8,12.2"/>
	<path d="M13.8,42c-0.1,2.8-5.5,5.9-7.1,4.7c-0.8-0.7-1.6-3-1.3-3.2c1.9-1.4,4.1-2.7,6.3-3.6C12.2,39.8,13.3,41.5,13.8,42"/>
	<path d="M6.1,33.2C4.9,33,3.5,33,2.5,32.3c-0.6-0.4-0.8-1.9-0.7-2.7C2,28.9,2.9,28,3.7,27.9c1.2-0.3,2.6-0.1,3.9-0.2
		c2-0.1,3,0.8,3,2.8c0,1.9-1.2,2.6-3,2.5c-0.5,0-0.9,0-1.4,0L6.1,33.2z"/>
</g>
</svg>
