<?xml version="1.0" encoding="utf-8"?>
<!-- Generator: Adobe Illustrator 17.1.0, SVG Export Plug-In . SVG Version: 6.00 Build 0)  -->
<!DOCTYPE svg PUBLIC "-//W3C//DTD SVG 1.1//EN" "http://www.w3.org/Graphics/SVG/1.1/DTD/svg11.dtd">
<svg version="1.1" id="Layer_1" xmlns="http://www.w3.org/2000/svg" xmlns:xlink="http://www.w3.org/1999/xlink" x="0px" y="0px"
	 viewBox="0 0 64 64" enable-background="new 0 0 64 64" xml:space="preserve">
<g>
	<g>
		<defs>
			<rect id="SVGID_3_" y="5.7" width="64" height="52.5"/>
		</defs>
		<clipPath id="SVGID_2_">
			<use xlink:href="#SVGID_3_"  overflow="visible"/>
		</clipPath>
		<path clip-path="url(#SVGID_2_)" fill="#FFFFFF" d="M31.2,40.2c0.1,0.1,0.2,0.2,0.3,0.3c0.5-0.2,1-0.3,1.5-0.5
			c3.3-1.8,6.4-3.7,9.3-6.1c0.3-0.2,0.7-0.4,1-0.4c1.8,0,3.5,0.1,5.3,0c3.9-0.3,7.4-1.6,10.5-4c6.5-5.2,6.8-13.4,0.6-19
			c-3.1-2.8-6.9-4.2-11-4.6c-5.6-0.5-10.8,0.7-15.2,4.3C27,15.3,27,23.7,33.1,29c0.3,0.3,0.6,0.8,0.6,1.3c0,3-0.7,5.8-2,8.5
			C31.5,39.3,31.3,39.7,31.2,40.2 M50.9,37.4c-1.7,0.1-3.2,0.3-4.7,0.3c-0.8,0-1.1,0.2-1.1,1.1c0,4.3,0,8.5,0,12.8c0,0.7-0.2,1-1,1
			c-12.3,0-24.6,0-37,0c-1.6,0-1.6,0-1.6-1.6c0-7.7,0-15.4,0-23.1c0-1.6,0-1.6,1.6-1.6c5.8,0,11.6,0,17.5,0c0.3,0,0.7-0.1,1.1-0.1
			c-1.9-4.3-1.9-8.4-0.1-12.6H0v44.7c0.2,0,0.3,0,0.5,0c16.5,0,33,0,49.6,0c0.8,0,0.9-0.3,0.9-1c0-4,0-8,0-12
			C50.9,42.7,50.9,40.1,50.9,37.4"/>
		<path clip-path="url(#SVGID_2_)" d="M31.2,40.2c0.2-0.5,0.3-0.9,0.5-1.4c1.3-2.7,2-5.5,2-8.5c0-0.4-0.3-1-0.6-1.3
			C27,23.7,27,15.3,33.3,10.1c4.4-3.6,9.6-4.8,15.2-4.3c4.2,0.4,7.9,1.8,11,4.6c6.2,5.6,5.9,13.8-0.6,19c-3.1,2.4-6.6,3.8-10.5,4
			c-1.7,0.1-3.5,0-5.3,0c-0.3,0-0.7,0.2-1,0.4c-2.8,2.4-6,4.4-9.3,6.1c-0.5,0.2-1,0.4-1.5,0.5C31.3,40.4,31.2,40.3,31.2,40.2"/>
		<path clip-path="url(#SVGID_2_)" d="M50.9,37.4c0,2.7,0,5.3,0,7.9c0,4,0,8,0,12c0,0.7-0.2,1-0.9,1c-16.5,0-33,0-49.6,0
			c-0.1,0-0.3,0-0.5,0V13.5h25.7c-1.8,4.2-1.7,8.4,0.1,12.6c-0.5,0-0.8,0.1-1.1,0.1c-5.8,0-11.7,0-17.5,0c-1.6,0-1.6,0-1.6,1.6
			c0,7.7,0,15.4,0,23.1c0,1.6,0,1.6,1.6,1.6c12.3,0,24.6,0,37,0c0.8,0,1-0.2,1-1c0-4.3,0-8.5,0-12.8c0-0.9,0.3-1.1,1.1-1.1
			C47.7,37.7,49.2,37.5,50.9,37.4 M18.4,18.2c-1.2,0-2.1,1-2,2.2c0,1.1,1,2.1,2.1,2.1c1.1,0,2.1-1,2.1-2.2
			C20.5,19.2,19.6,18.2,18.4,18.2 M6.8,18.2c-1.2,0-2,0.9-2,2.2c0,1.2,0.9,2.1,2,2.1c1.1,0,2.1-1,2.1-2.2
			C8.9,19.2,7.9,18.2,6.8,18.2 M10.6,20.4c0,1.2,0.9,2.1,2.1,2.1c1.1,0,2-1,2-2.1c0-1.2-0.9-2.2-2-2.2
			C11.4,18.3,10.6,19.1,10.6,20.4"/>
		<path clip-path="url(#SVGID_2_)" fill="#FFFFFF" d="M18.4,18.2c1.2,0,2.1,0.9,2.1,2.1c0,1.2-0.9,2.2-2.1,2.2c-1.1,0-2-1-2.1-2.1
			C16.3,19.2,17.2,18.3,18.4,18.2"/>
		<path clip-path="url(#SVGID_2_)" fill="#FFFFFF" d="M6.8,18.2c1.1,0,2.1,1,2.1,2.1c0,1.1-1,2.2-2.1,2.2c-1.1,0-2-1-2-2.1
			C4.8,19.2,5.6,18.3,6.8,18.2"/>
		<path clip-path="url(#SVGID_2_)" fill="#FFFFFF" d="M10.6,20.4c0-1.3,0.8-2.1,2.1-2.1c1.2,0,2.1,1,2,2.2c0,1.1-0.9,2-2,2.1
			C11.5,22.5,10.6,21.6,10.6,20.4"/>
	</g>
</g>
</svg>
