<?xml version="1.0" encoding="utf-8"?>
<!-- Generator: Adobe Illustrator 17.1.0, SVG Export Plug-In . SVG Version: 6.00 Build 0)  -->
<!DOCTYPE svg PUBLIC "-//W3C//DTD SVG 1.1//EN" "http://www.w3.org/Graphics/SVG/1.1/DTD/svg11.dtd">
<svg version="1.1" id="Layer_1" xmlns="http://www.w3.org/2000/svg" xmlns:xlink="http://www.w3.org/1999/xlink" x="0px" y="0px"
	 viewBox="0 0 64 64" enable-background="new 0 0 64 64" xml:space="preserve">
<g id="miu">
	<g id="editor_trash_delete_recycle_bin_glyph">
		<g>
			<path id="path-1" d="M5.8,2.9c0,0-1.5,0-1.5,2.9s1.5,2.9,1.5,2.9h52.4c0,0,1.5,0,1.5-2.9s-1.5-2.9-1.5-2.9H5.8L5.8,2.9z
				 M7.2,11.6h49.5L50.8,64H13L7.2,11.6z M27.6,0c-2.9,0-2.9,2.9-2.9,2.9h14.5c0,0,0-2.9-2.9-2.9H27.6L27.6,0z M21.7,58.2h2.9
				l-2.9-46.7h-2.9L21.7,58.2z M42.1,11.5l-2.9,46.7h2.9L45,11.5H42.1L42.1,11.5z M30.5,11.5v46.7h2.9V11.5H30.5L30.5,11.5z"/>
		</g>
		<g>
			<path id="path-1_1_" fill="none" d="M5.8,2.9c0,0-1.5,0-1.5,2.9s1.5,2.9,1.5,2.9h52.4c0,0,1.5,0,1.5-2.9s-1.5-2.9-1.5-2.9H5.8
				L5.8,2.9z M7.2,11.6h49.5L50.8,64H13L7.2,11.6z M27.6,0c-2.9,0-2.9,2.9-2.9,2.9h14.5c0,0,0-2.9-2.9-2.9H27.6L27.6,0z M21.7,58.2
				h2.9l-2.9-46.7h-2.9L21.7,58.2z M42.1,11.5l-2.9,46.7h2.9L45,11.5H42.1L42.1,11.5z M30.5,11.5v46.7h2.9V11.5H30.5L30.5,11.5z"/>
		</g>
	</g>
</g>
</svg>
