<?xml version="1.0" encoding="utf-8"?>
<!-- Generator: Adobe Illustrator 17.1.0, SVG Export Plug-In . SVG Version: 6.00 Build 0)  -->
<!DOCTYPE svg PUBLIC "-//W3C//DTD SVG 1.1//EN" "http://www.w3.org/Graphics/SVG/1.1/DTD/svg11.dtd">
<svg version="1.1" id="Layer_1" xmlns="http://www.w3.org/2000/svg" xmlns:xlink="http://www.w3.org/1999/xlink" x="0px" y="0px"
	 viewBox="0 0 64 64" enable-background="new 0 0 64 64" xml:space="preserve">
<g>
	<path d="M61.3,0H2.7C1.2,0,0,1.2,0,2.7v58.7C0,62.8,1.2,64,2.7,64h58.7c1.5,0,2.7-1.2,2.7-2.7V2.7C64,1.2,62.8,0,61.3,0z
		 M33.9,11.3H59v25.1H33.9V11.3z M20.3,4.1c1.2,0,2.1,1,2.1,2.1c0,1.2-1,2.1-2.1,2.1c-1.2,0-2.1-1-2.1-2.1C18.1,5,19.1,4.1,20.3,4.1
		z M13.8,4.1c1.2,0,2.1,1,2.1,2.1c0,1.2-1,2.1-2.1,2.1c-1.2,0-2.1-1-2.1-2.1C11.6,5,12.6,4.1,13.8,4.1z M7.2,4.1
		c1.2,0,2.1,1,2.1,2.1c0,1.2-1,2.1-2.1,2.1c-1.2,0-2.1-1-2.1-2.1C5.1,5,6,4.1,7.2,4.1z M5,11.3h25.1v25.1H5V11.3z M59,58.5H5V40.8
		h54V58.5z"/>
</g>
</svg>
