<?xml version="1.0" encoding="utf-8"?>
<!-- Generator: Adobe Illustrator 17.1.0, SVG Export Plug-In . SVG Version: 6.00 Build 0)  -->
<!DOCTYPE svg PUBLIC "-//W3C//DTD SVG 1.1//EN" "http://www.w3.org/Graphics/SVG/1.1/DTD/svg11.dtd">
<svg version="1.1" id="Layer_1" xmlns="http://www.w3.org/2000/svg" xmlns:xlink="http://www.w3.org/1999/xlink" x="0px" y="0px"
	 viewBox="0 0 64 64" enable-background="new 0 0 64 64" xml:space="preserve">
<g>
	<path d="M35.6,37.1c0,0-2.3,0-2.3-3.3c0-3.3,0.6-2.6,0.6-2.6s-0.6-4.3-0.6-6.1c0-1.8,2-6.4,8.4-6.4c0,0,1.6,0,3.2-0.4
		c1.5-0.4,1.6-0.7,2.1,0c0.5,0.7,0.4,0.8,0.9,1.2c0.6,0.4,3.1,3.3,3.1,6.4c0,3.1-0.7,5.5-0.7,5.5s0.7-0.2,0.7,1.3
		c0,1.5,0.2,4-2.2,4.5c0,0,0,3.3-0.6,3.8c-0.6,0.5-0.7,0.7-0.7,1c0,0.4,0.2,0.4,0.7,0.7c0.5,0.4,1.1,1.5,1.7,2
		c0.7,0.4,10.6,3,12.1,5.9c1.4,2.9,2.4,4.4,2.1,5.7c-0.3,1.3-1.2,1.7-2.5,1.7s-19.6,0-19.6,0H22.3c0,0-1.9-0.3-1.9-2.2
		c0-1.9,1.3-6.6,8.5-8.8c7.2-2.3,5.7-2,5.7-2s1.3-2.2,2.3-2.4c0,0,0.4-0.4-0.2-1.2c-0.6-0.8-0.9-0.9-0.9-2.4
		C35.6,37.2,35.6,37.1,35.6,37.1z"/>
	<g>
		<path d="M28.2,44.9c2.9-0.9,4.2-1.4,4.9-1.6c0.4-0.6,0.8-1.2,1.4-1.8c-0.5-0.7-0.8-1.4-0.8-2.9c0-0.1,0-0.2,0-0.3
			c-1.2-0.7-2.3-2.2-2.3-4.6c0-1,0-2.3,0.5-3.3c-0.2-1.4-0.5-4-0.5-5.4c0-2.2,1.9-6.8,7.4-8c0-0.2,0-0.5,0-0.7
			c0-3.9-3.2-7.7-3.9-8.1c-0.7-0.5-0.6-0.6-1.2-1.5c-0.6-0.9-0.6-0.5-2.6,0c-2,0.5-4,0.5-4,0.5c-8.1,0-10.6,5.9-10.6,8.2
			c0,2.3,0.7,7.8,0.7,7.8s-0.7-1-0.7,3.2s2.9,4.2,2.9,4.2s0,0.2,0,2.1c0,1.9,0.5,2,1.2,3.1c0.7,1,0.2,1.5,0.2,1.5
			c-1.3,0.3-2.9,3.1-2.9,3.1s2-0.3-7.2,2.5C1.6,45.7,0,51.7,0,54.1c0,2.4,2.4,2.8,2.4,2.8h16.2c-0.1-0.4-0.2-0.9-0.2-1.4
			C18.5,52.1,21,47.2,28.2,44.9z"/>
	</g>
</g>
</svg>
