<?xml version="1.0" encoding="utf-8"?>
<!-- Generator: Adobe Illustrator 17.1.0, SVG Export Plug-In . SVG Version: 6.00 Build 0)  -->
<!DOCTYPE svg PUBLIC "-//W3C//DTD SVG 1.1//EN" "http://www.w3.org/Graphics/SVG/1.1/DTD/svg11.dtd">
<svg version="1.1" id="Layer_1" xmlns="http://www.w3.org/2000/svg" xmlns:xlink="http://www.w3.org/1999/xlink" x="0px" y="0px"
	 viewBox="0 0 64 64" enable-background="new 0 0 64 64" xml:space="preserve">
<g>
	<path d="M40.2,47.9h-16c-1.1-1.3-2-2.4-3-3.3c-6.7-5.4-8.8-14.5-5-22.2c3.6-7.3,12.2-11.4,20-9.5c8.5,2,14.3,9.3,14.1,17.9
		c-0.2,5.7-2.6,10.4-7.2,14C42,45.6,41.3,46.6,40.2,47.9"/>
	<path d="M23.2,58.8H41c0,2.8-1.5,4.6-3.9,4.9c-3.1,0.4-6.3,0.4-9.5,0.1C25,63.5,23.5,61.7,23.2,58.8"/>
	<rect x="23.3" y="51.6" width="17.7" height="3.3"/>
</g>
</svg>
