<?xml version="1.0" encoding="utf-8"?>
<!-- Generator: Adobe Illustrator 17.1.0, SVG Export Plug-In . SVG Version: 6.00 Build 0)  -->
<!DOCTYPE svg PUBLIC "-//W3C//DTD SVG 1.1//EN" "http://www.w3.org/Graphics/SVG/1.1/DTD/svg11.dtd">
<svg version="1.1" id="Layer_1" xmlns="http://www.w3.org/2000/svg" xmlns:xlink="http://www.w3.org/1999/xlink" x="0px" y="0px"
	 viewBox="0 0 64 64" enable-background="new 0 0 64 64" xml:space="preserve">
<g>
	<path fill-rule="evenodd" clip-rule="evenodd" d="M49.5,11.3c0-2.1,0-4,0-6.2C54.4,9,59.1,12.7,64,16.5c-4.8,3.8-9.5,7.5-14.4,11.4
		c0-2.2,0-4.1,0-6c-3.2-0.4-6.2-0.4-8.4,2.2c-3.2,3.7-6.3,7.4-9.3,11.1c-3.2,3.9-6.3,7.8-9.5,11.7c-0.6,0.8-1.4,1.4-2.2,2
		c-1.4,1.2-3,1.8-4.9,1.8c-4.7-0.1-9.4,0-14.1,0c-0.3,0-0.6,0-1.1-0.1c0-3.4,0-6.7,0-10.2c0.4,0,0.9,0,1.3,0c3.1,0,6.2-0.1,9.3,0
		c2.4,0.1,4.3-0.6,5.8-2.3c3-3.3,6-6.7,8.8-10.1c3.2-3.9,6.3-7.9,9.5-11.9c0.4-0.5,0.9-1,1.3-1.5c2.1-2.4,4.6-3.7,8-3.3
		C45.8,11.5,47.6,11.3,49.5,11.3z"/>
	<path fill-rule="evenodd" clip-rule="evenodd" d="M49.6,52.7c-2.6,0-4.9-0.1-7.2,0c-1.6,0.1-3-0.4-4.1-1.5
		c-2.4-2.4-4.8-4.9-7.1-7.3c2.5-2.5,4.8-4.7,7.1-7c2.8,3.2,5.8,6.7,11.2,5c0-1.7,0-3.6,0-5.9c5,3.9,9.7,7.6,14.6,11.4
		c-4.8,3.8-9.5,7.5-14.4,11.3C49.6,56.7,49.6,54.8,49.6,52.7z"/>
	<path fill-rule="evenodd" clip-rule="evenodd" d="M17.6,26.9c-0.6-0.5-1.3-1.1-2-1.6c-1.3-1.1-2.8-1.5-4.4-1.5c-3.7,0-7.4,0-11.2,0
		c0-3.5,0-6.8,0-10.1c0.1-0.1,0.3-0.2,0.4-0.2c5.4,0,10.7,0,16.1,0c0.8,0,1.7,0.3,2.3,0.8c2.1,1.7,4.1,3.6,6,5.4
		C22.3,22.2,20,24.5,17.6,26.9z"/>
</g>
</svg>
