<?xml version="1.0" encoding="utf-8"?>
<!-- Generator: Adobe Illustrator 17.1.0, SVG Export Plug-In . SVG Version: 6.00 Build 0)  -->
<!DOCTYPE svg PUBLIC "-//W3C//DTD SVG 1.1//EN" "http://www.w3.org/Graphics/SVG/1.1/DTD/svg11.dtd">
<svg version="1.1" id="Layer_1" xmlns="http://www.w3.org/2000/svg" xmlns:xlink="http://www.w3.org/1999/xlink" x="0px" y="0px"
	 viewBox="0 0 64 64" enable-background="new 0 0 64 64" xml:space="preserve">
<g>
	<path d="M48,46.6c0,0-1.3,0-1.3-1.9s0.3-1.4,0.3-1.4s-0.3-2.4-0.3-3.5s1.1-3.6,4.7-3.6c0,0,0.9,0,1.8-0.2c0.9-0.2,0.9-0.4,1.2,0
		s0.2,0.5,0.5,0.7c0.3,0.2,1.7,1.9,1.7,3.6c0,1.7-0.4,3.1-0.4,3.1s0.4-0.1,0.4,0.7s0.1,2.3-1.3,2.5c0,0,0,1.9-0.3,2.1
		c-0.3,0.3-0.4,0.4-0.4,0.6c0,0.2,0.1,0.2,0.4,0.4c0.3,0.2,0.6,0.9,1,1.1c0.4,0.2,6,1.7,6.8,3.3c0.8,1.6,1.3,2.5,1.2,3.2
		c-0.2,0.7-0.7,0.9-1.4,0.9h-11H40.4c0,0-1.1-0.2-1.1-1.3s0.7-3.7,4.8-5c4.1-1.3,3.2-1.1,3.2-1.1s0.7-1.2,1.3-1.4
		c0,0,0.2-0.2-0.1-0.7c-0.3-0.5-0.5-0.5-0.5-1.4C47.9,46.6,48,46.6,48,46.6"/>
	<path d="M27.6,18.4c0,0-1.5,0-1.5-2.2c0-2.2,0.4-1.7,0.4-1.7s-0.4-2.8-0.4-4c0-1.2,1.3-4.2,5.5-4.2c0,0,1.1,0,2.1-0.3
		c1-0.3,1-0.5,1.4,0c0.3,0.5,0.2,0.5,0.6,0.8c0.4,0.2,2,2.2,2,4.2s-0.4,3.6-0.4,3.6s0.4-0.2,0.4,0.9s0.1,2.7-1.5,2.9
		c0,0,0,2.2-0.4,2.5c-0.4,0.3-0.5,0.5-0.5,0.7c0,0.2,0.1,0.3,0.5,0.5c0.3,0.2,0.7,1,1.1,1.3c0.4,0.3,7,2,7.9,3.9
		c0.9,1.9,1.6,2.9,1.4,3.7c-0.2,0.8-0.8,1.1-1.6,1.1H31.8H18.8c0,0-1.3-0.2-1.3-1.5c0-1.3,0.8-4.3,5.6-5.8c4.7-1.5,3.7-1.3,3.7-1.3
		s0.8-1.4,1.5-1.6c0,0,0.2-0.3-0.1-0.8c-0.4-0.5-0.6-0.6-0.6-1.6C27.6,18.5,27.6,18.4,27.6,18.4"/>
	<path d="M15.2,49.7c0.3,0.2,1.1,0.9,1.4,1.1c0.4,0.2,6,1.7,6.8,3.3c0.8,1.6,1.3,2.5,1.2,3.2c-0.2,0.7-0.7,0.9-1.4,0.9h-11H1.1
		c0,0-1.1-0.2-1.1-1.3c0-1.1,0.7-3.7,4.8-5C8.1,51,8,50.9,8,50.9s1.4-1.1,2-1.2L15.2,49.7z"/>
	<path d="M16.4,50.8c0,0-1.2-0.2-1.3-0.7c0-0.5,0-1.6,0-1.6s3,0,3.8-0.6c0.8-0.6,0.8-0.3,0-1.7c-0.8-1.4-1-4.5-1.3-5.9
		s-1.3-4.5-4.9-4.5h-0.3c-3.6,0-4.5,3.1-4.9,4.5c-0.4,1.4-0.6,4.5-1.3,5.9c-0.8,1.4-0.8,1.1,0,1.7C7,48.4,10,48.5,10,48.5
		s0,1.1,0,1.6c0,0.5-1.3,0.7-1.3,0.7H16.4z"/>
	<path d="M12.3,29.1c-0.9,0-1.7-0.7-1.7-1.7v-7.2c0-0.2,0-1.9,1.3-3.2c0.5-0.5,1.5-1.2,3-1.2h2.6c0.9,0,1.7,0.7,1.7,1.7
		c0,0.9-0.7,1.7-1.7,1.7h-2.6c-0.4,0-0.6,0.1-0.6,0.2c-0.2,0.2-0.3,0.7-0.3,0.8v7.2C14,28.3,13.3,29.1,12.3,29.1"/>
	<path d="M17.3,22.9c-0.4,0-0.9-0.2-1.2-0.5c-0.7-0.7-0.7-1.7,0-2.4l2.7-2.7l-2.6-2.6c-0.7-0.7-0.7-1.7,0-2.4c0.7-0.7,1.7-0.7,2.4,0
		l3.8,3.8c0.3,0.3,0.5,0.7,0.5,1.2c0,0.4-0.2,0.9-0.5,1.2l-3.9,3.9C18.1,22.8,17.7,22.9,17.3,22.9"/>
	<path d="M51.5,23.6c-0.9,0-1.7-0.7-1.7-1.7v-2.6c0-0.4-0.1-0.6-0.2-0.6c-0.2-0.2-0.7-0.3-0.8-0.3h-7.2c-0.9,0-1.7-0.7-1.7-1.7
		c0-0.9,0.7-1.7,1.7-1.7h7.2c0.2,0,1.9,0,3.2,1.3c0.5,0.5,1.2,1.5,1.2,3V22C53.2,22.9,52.4,23.6,51.5,23.6"/>
	<path d="M51.7,27.3c-0.4,0-0.9-0.2-1.2-0.5l-3.9-3.9c-0.7-0.7-0.7-1.7,0-2.4c0.7-0.7,1.7-0.7,2.4,0l2.7,2.7l2.6-2.6
		c0.7-0.7,1.7-0.7,2.4,0c0.7,0.7,0.7,1.7,0,2.4l-3.8,3.8C52.6,27.2,52.2,27.3,51.7,27.3"/>
	<path d="M29.4,49.7c-0.4,0-0.9-0.2-1.2-0.5l-3.8-3.8c-0.3-0.3-0.5-0.7-0.5-1.2c0-0.4,0.2-0.9,0.5-1.2l3.9-3.9
		c0.7-0.7,1.7-0.7,2.4,0c0.7,0.7,0.7,1.7,0,2.4L28,44.3l2.6,2.6c0.7,0.7,0.7,1.7,0,2.4C30.3,49.5,29.8,49.7,29.4,49.7"/>
	<path d="M39.7,45.9H27.6c-0.9,0-1.7-0.7-1.7-1.7c0-0.9,0.7-1.7,1.7-1.7h12.1c0.9,0,1.7,0.7,1.7,1.7C41.3,45.1,40.6,45.9,39.7,45.9"
		/>
</g>
</svg>
