<?xml version="1.0" encoding="utf-8"?>
<!-- Generator: Adobe Illustrator 17.1.0, SVG Export Plug-In . SVG Version: 6.00 Build 0)  -->
<!DOCTYPE svg PUBLIC "-//W3C//DTD SVG 1.1//EN" "http://www.w3.org/Graphics/SVG/1.1/DTD/svg11.dtd">
<svg version="1.1" id="Layer_1" xmlns="http://www.w3.org/2000/svg" xmlns:xlink="http://www.w3.org/1999/xlink" x="0px" y="0px"
	 viewBox="0 0 64 64" enable-background="new 0 0 64 64" xml:space="preserve">
<g>
	<defs>
		<rect id="SVGID_1_" y="0.8" width="64" height="62.5"/>
	</defs>
	<clipPath id="SVGID_2_">
		<use xlink:href="#SVGID_1_"  overflow="visible"/>
	</clipPath>
	<path clip-path="url(#SVGID_2_)" d="M64,57.5c-0.5-6.6-1-13.3-1.5-19.9c-0.4-6-0.9-12.1-1.3-18.1c-0.1-1.3-0.9-1.9-2.1-1.8
		c-1,0.1-2,0.1-3,0.2c0-0.4,0-0.6,0-0.9c0-1.7,0-3.4,0-5.1c0-1.3-0.7-1.9-2-1.9c-0.9,0-1.7,0-2.6,0c-0.5,0-1.1,0-1.7,0
		c0.1-1.4,0.2-2.7,0.3-4c0.1-1.3-0.4-2.1-1.7-2.2c-2.5-0.3-5-0.5-7.5-0.7c-3.2-0.3-6.3-0.5-9.5-0.8c-3.7-0.3-7.4-0.6-11.1-1
		c-2.6-0.2-5.2-0.4-7.8-0.7c-1.6-0.2-2.4,0.5-2.5,2.1C9.9,4.3,9.8,5.7,9.7,7.2C9.6,8.1,9.5,9,9.4,10c-2.5,0-4.9,0-7.3,0
		C0.6,10,0,10.6,0,12.2c0,13.2,0,26.4,0,39.6C0,53.5,0.6,54,2.3,54c2.5,0,5.1,0,7.7,0c0.1,0.3,0.1,0.5,0.1,0.7
		c0.2,2.2,0.3,4.3,0.5,6.5c0.1,1.4,0.7,2.1,2.2,2c3.8-0.3,7.6-0.6,11.4-0.8c6.6-0.5,13.3-1,19.9-1.4c6-0.4,12-0.9,18-1.3
		C63.5,59.6,64.1,58.8,64,57.5 M13.4,4.4l33.1,2.8c-0.1,0.9-0.1,1.7-0.2,2.6c0,0.1-0.4,0.3-0.7,0.3c-3.6,0-7.2,0-10.9,0
		c-7,0-13.9,0-20.9,0c-0.3,0-0.6,0-0.9,0C13.1,8.1,13.3,6.3,13.4,4.4 M3.5,50.5c0-0.3,0-0.5,0-0.8c0-11.8,0-23.6,0-35.3
		c0-0.9,0-0.9,1-0.9c5.1,0,10.3,0,15.4,0c5.5,0,10.9,0,16.4,0c5,0,10.1,0,15.1,0c0.4,0,0.8,0,1.2,0v37H3.5z M14,59.7
		c-0.1-1.9-0.3-3.7-0.4-5.6h1.1c13.1,0,26.1,0,39.2,0c1.6,0,2.2-0.6,2.2-2.3c0-9.9,0-19.7,0-29.6c0-0.2,0-0.5,0-0.8
		c0.6-0.1,1.1-0.1,1.8-0.2c0.9,11.7,1.7,23.3,2.5,35C44.9,57.4,29.5,58.5,14,59.7"/>
	<path clip-path="url(#SVGID_2_)" d="M26.5,29.9c-0.6,0.3-1.3,0.5-1.9,0.8c-1.7,0.7-3.3,1.5-5.2,2.2c0.3-2.6,0.6-5.1,0.9-7.5
		c0.1-1.1,0-1.4-1.2-1.4c-5.3-0.3-10.1,3.7-10.4,9c-0.3,4,1.3,7.3,4.8,9.3c3.6,2.1,7.2,2,10.7-0.4c3.7-2.5,5.2-7.3,3.7-11.4
		C27.6,29.7,27.4,29.5,26.5,29.9"/>
	<path clip-path="url(#SVGID_2_)" d="M24.4,20.2c-0.6-0.1-0.8,0.1-0.9,0.6c-0.3,2.3-0.5,4.6-0.8,6.9c-0.1,0.6,0.2,0.8,0.8,0.5
		c2.1-0.9,4.2-1.8,6.3-2.7c0.5-0.2,0.6-0.5,0.3-0.9C28.9,22.2,27,20.7,24.4,20.2"/>
	<path clip-path="url(#SVGID_2_)" d="M45.6,24.3c-1.5,0-3.1,0-4.6,0v0c-1.6,0-3.2,0-4.9,0c-0.6,0-1.2,0.2-1.3,0.8
		c-0.1,0.4,0,1,0.2,1.3c0.3,0.3,0.8,0.5,1.3,0.5c3.1,0,6.2,0,9.3,0c1,0,1.6-0.5,1.7-1.3C47.2,24.9,46.5,24.3,45.6,24.3"/>
	<path clip-path="url(#SVGID_2_)" d="M45.7,32c-3.2,0-6.4,0-9.7,0c-1,0-1.5,0.5-1.4,1.3c0,0.8,0.6,1.3,1.5,1.3c1.6,0,3.1,0,4.7,0
		c1.6,0,3.2,0,4.8,0c0.9,0,1.5-0.5,1.5-1.3C47.2,32.6,46.6,32,45.7,32"/>
	<path clip-path="url(#SVGID_2_)" d="M45.7,39.8c-3.2,0-6.3,0-9.5,0c-1,0-1.6,0.5-1.6,1.3c0,0.8,0.6,1.3,1.6,1.3c1.5,0,3.1,0,4.6,0
		c0,0,0,0,0,0c1.6,0,3.2,0,4.9,0c0.4,0,1-0.3,1.2-0.6c0.2-0.3,0.2-0.9,0.1-1.3C46.8,39.9,46.3,39.8,45.7,39.8"/>
</g>
</svg>
