<?xml version="1.0" encoding="utf-8"?>
<!-- Generator: Adobe Illustrator 17.1.0, SVG Export Plug-In . SVG Version: 6.00 Build 0)  -->
<!DOCTYPE svg PUBLIC "-//W3C//DTD SVG 1.1//EN" "http://www.w3.org/Graphics/SVG/1.1/DTD/svg11.dtd">
<svg version="1.1" id="Layer_1" xmlns="http://www.w3.org/2000/svg" xmlns:xlink="http://www.w3.org/1999/xlink" x="0px" y="0px"
	 viewBox="0 0 64 64" enable-background="new 0 0 64 64" xml:space="preserve">
<g>
	<path fill-rule="evenodd" clip-rule="evenodd" d="M31.1,0c0.6,0,1.3,0,1.9,0c0.3,0,0.6,0.1,0.9,0.1c1.7,0.2,3.3,0.3,5,0.7
		C46,2.4,52,6,56.6,11.6c3.8,4.6,6.2,9.9,7,15.9c0.5,3.7,0.4,7.3-0.3,10.9c-1.8,8.3-6.1,14.9-13.1,19.8c-4.4,3.1-9.4,5-14.8,5.5
		c-0.9,0.1-1.7,0.2-2.6,0.3c-0.6,0-1.2,0-1.8,0c-0.2,0-0.5-0.1-0.7-0.1c-2.7-0.1-5.3-0.6-7.9-1.4c-7.6-2.4-13.4-7-17.6-13.7
		c-2.6-4.1-4.1-8.6-4.6-13.4c-0.1-0.9-0.2-1.9-0.3-2.8c0-0.3,0-0.7,0-1c0-0.3,0.1-0.6,0.1-0.9c0.1-2.3,0.4-4.6,1-6.8
		c2.1-7.6,6.3-13.7,12.8-18.2c4.4-3.1,9.3-4.9,14.6-5.4C29.4,0.2,30.3,0.1,31.1,0z M61.4,31.2c-0.1-0.9-0.2-2.5-0.5-4.2
		c-1-5.8-3.5-10.8-7.4-15c-4.8-5.1-10.7-8.2-17.7-9.1c-3.3-0.4-6.6-0.4-9.8,0.3C19.5,4.6,14,7.9,9.6,13c-4.3,5-6.5,10.8-7,17.3
		c-0.2,2.7,0,5.3,0.6,8c1,4.6,3,8.7,6,12.3c0.1,0.2,0.5,0.3,0.7,0.2c4.5-1.6,9.1-3.2,13.6-4.8c0.2-0.1,0.5-0.4,0.6-0.6
		c0.1-1.6,0.1-3.3-0.5-4.8c-0.5-1.3-0.9-2.7-1.3-4c-0.1-0.3-0.1-0.7-0.3-1c-1.7-2.9-2.7-5.9-1.8-9.3c0-0.2,0.1-0.3,0-0.5
		c-0.1-1.3-0.1-2.5-0.2-3.8c-0.1-1.5-0.5-2.9-0.2-4.4c0.7-4,2.9-6.9,6.6-8.5c2.6-1.1,5.4-1.2,8.2-0.9c2.5,0.2,4.8,1.1,6.7,2.9
		c2.7,2.5,3.8,5.5,3.5,9.1c-0.1,1.2-0.3,2.4-0.4,3.6c-0.1,0.8-0.2,1.7,0,2.5c0.3,1,0.5,2.1,0.3,3.1c-0.3,2.2-0.8,4.2-2.1,6.1
		c-0.2,0.2-0.2,0.5-0.3,0.8c-0.5,1.6-0.9,3.2-1.5,4.7c-0.5,1.3-0.9,2.5-0.8,3.9c0,0.7,0.2,1,0.9,1.2c4.4,1.5,8.8,3,13.2,4.5
		c0.4,0.1,0.6,0.1,0.8-0.2C59.2,45,61.4,38.9,61.4,31.2z M52.7,52.8c-0.3-0.1-0.5-0.2-0.8-0.3c-4-1.4-8-2.7-12-4.1
		c-1.6-0.5-2.3-1.4-2.4-3c-0.2-2,0.3-3.8,1.1-5.6c0.5-1.3,0.9-2.7,1.3-4c0.1-0.5,0.1-1.1,0.4-1.4c1.4-1.6,1.8-3.6,1.9-5.6
		c0.1-0.8-0.4-1.7-0.3-2.5c0-1.9,0.1-3.7,0.4-5.6c0.5-3.4-0.6-6.2-3.2-8.3c-1.4-1.1-3.2-1.6-5-1.8c-2.2-0.2-4.4-0.1-6.5,0.7
		c-3.6,1.4-5.3,4.8-5.3,7.8c0,1.2,0.3,2.3,0.4,3.5c0.1,1.4,0.2,2.9,0,4.2c-0.1,0.9-0.4,1.8-0.2,2.7c0.4,1.7,0.7,3.5,1.9,4.9
		c0.1,0.2,0.2,0.4,0.2,0.6c0.3,1.2,0.5,2.6,1,3.7c0.9,2.1,1.2,4.4,1.1,6.6c-0.1,1.6-0.8,2.5-2.3,3c-3.8,1.3-7.6,2.6-11.5,4
		c-0.4,0.2-0.9,0.4-1.3,0.6C22.3,64,41.3,64.4,52.7,52.8z"/>
</g>
</svg>
